<?xml version="1.0" encoding="UTF-8"?>
<svg version="1.1" xmlns="http://www.w3.org/2000/svg" width="1024" height="1024">
<path d="M0 0 C337.92 0 675.84 0 1024 0 C1024 337.92 1024 675.84 1024 1024 C686.08 1024 348.16 1024 0 1024 C0 686.08 0 348.16 0 0 Z " fill="#FEFEFE" transform="translate(0,0)"/>
<path d="M0 0 C1.11586487 -0.01283524 2.23172974 -0.02567047 3.38140869 -0.03889465 C4.59584656 -0.04628159 5.81028442 -0.05366852 7.06152344 -0.0612793 C8.31286072 -0.06935104 9.564198 -0.07742279 10.85345459 -0.08573914 C13.5133434 -0.0995994 16.17310755 -0.11060672 18.83300781 -0.11816406 C21.53701785 -0.12695746 24.24050276 -0.14766561 26.94433594 -0.1796875 C30.85855442 -0.22270353 34.77209681 -0.23858694 38.68652344 -0.2487793 C39.87667053 -0.26628738 41.06681763 -0.28379547 42.29302979 -0.30183411 C57.7902992 -0.26253561 71.36438523 4.61699382 82.79589844 15.1496582 C94.31914264 27.609166 97.49493894 43.96128289 101.19433594 59.93481445 C102.43094643 65.24401699 103.80328796 70.49712033 105.29589844 75.73950195 C108.17990908 85.91882819 110.75839665 96.15180683 113.11230469 106.46606445 C113.36955322 107.59206055 113.62680176 108.71805664 113.8918457 109.87817383 C114.39501027 112.08951194 114.894463 114.30169942 115.3894043 116.51489258 C116.60717322 121.88382694 117.9341367 127.18393193 119.48730469 132.46606445 C122.86777502 144.08492565 125.5500093 155.89246979 128.38647461 167.65307617 C131.20186659 179.31037838 134.05537035 190.9311565 137.3996582 202.44946289 C139.33492522 209.64641133 140.96395869 216.92250804 142.67089844 224.17700195 C143.00089844 171.70700195 143.33089844 119.23700195 143.67089844 65.17700195 C187.89089844 65.17700195 232.11089844 65.17700195 277.67089844 65.17700195 C277.67089844 101.14700195 277.67089844 137.11700195 277.67089844 174.17700195 C282.29089844 170.87700195 286.91089844 167.57700195 291.67089844 164.17700195 C297.79589844 160.05200195 297.79589844 160.05200195 300.70996094 158.1418457 C302.81503788 156.74494108 304.88473387 155.32886437 306.94433594 153.8684082 C308.00910156 153.12461914 309.07386719 152.38083008 310.17089844 151.61450195 C311.12996094 150.93258789 312.08902344 150.25067383 313.07714844 149.5480957 C315.67089844 148.17700195 315.67089844 148.17700195 317.44116211 148.33642578 C320.5809069 149.5200611 323.20012434 151.35685816 325.94042969 153.25512695 C326.53965744 153.66357849 327.13888519 154.07203003 327.75627136 154.49285889 C329.66911754 155.7987773 331.57622201 157.11282125 333.48339844 158.42700195 C334.75452615 159.29601346 336.02600715 160.16450846 337.29785156 161.0324707 C343.13304372 165.02231169 348.91766135 169.06754689 354.67089844 173.17700195 C355.00089844 137.20700195 355.33089844 101.23700195 355.67089844 64.17700195 C400.22089844 64.17700195 444.77089844 64.17700195 490.67089844 64.17700195 C490.67089844 156.24700195 490.67089844 248.31700195 490.67089844 343.17700195 C488.08772151 344.46859042 486.2431014 344.30116369 483.34915733 344.30004978 C481.64502884 344.30303635 481.64502884 344.30303635 479.90647352 344.30608326 C478.647741 344.30317042 477.38900849 344.30025758 476.09213257 344.29725647 C474.74984613 344.29769219 473.40755978 344.29856712 472.06527388 344.29984564 C468.3642703 344.30209038 464.66329545 344.29806959 460.96229553 344.29306757 C456.9759267 344.28876297 452.98955959 344.29020951 449.00318909 344.29096985 C442.0923766 344.29149508 435.18157352 344.28834839 428.2707634 344.28273201 C418.27880064 344.27461686 408.28684246 344.27200177 398.29487677 344.27074402 C382.08492828 344.26855352 365.87498482 344.2618935 349.66503906 344.25244141 C333.91536484 344.24326723 318.16569198 344.23618642 302.41601562 344.23193359 C301.44576751 344.23167087 300.47551939 344.23140815 299.47586982 344.23113746 C294.60858794 344.22983246 289.74130605 344.22856874 284.87402415 344.22732556 C244.47297875 344.21695302 204.07193888 344.19933477 163.67089844 344.17700195 C163.68597443 345.84191681 163.68597443 345.84191681 163.70135498 347.54046631 C163.67689158 350.46141633 163.44470871 352.43697662 162.67089844 355.17700195 C162.43370205 358.0909236 162.44000093 361.00432127 162.42089844 363.92700195 C162.40027344 364.70043945 162.37964844 365.47387695 162.35839844 366.27075195 C162.31892678 372.15202949 162.92820356 378.22130909 167.12329102 382.7421875 C171.12779382 386.15527472 173.52497767 387.30176657 178.67914963 387.3044939 C180.27845105 387.30900538 180.27845105 387.30900538 181.9100616 387.31360799 C183.09077338 387.31185762 184.27148515 387.31010725 185.48797607 387.30830383 C186.73501855 387.31041955 187.98206103 387.31253526 189.26689267 387.31471509 C192.01308007 387.31932176 194.7592449 387.32073107 197.50543594 387.31974983 C201.97312561 387.31816046 206.4407928 387.32335186 210.90847778 387.32937622 C217.39529158 387.33749779 223.88210143 387.34243602 230.36891937 387.34566689 C240.62025106 387.35115783 250.87154936 387.36804969 261.12286377 387.38700867 C264.62832254 387.39336578 268.13378141 387.39967417 271.63924026 387.40598583 C272.51535898 387.40756959 273.39147769 387.40915336 274.29414545 387.41078511 C284.27259196 387.42873049 294.25104084 387.44495244 304.22949219 387.45996094 C305.14191544 387.46133681 306.0543387 387.46271268 306.99441114 387.46413025 C321.77917499 387.48605841 336.56393029 387.4968157 351.34870753 387.50433169 C366.52038479 387.51239999 381.69198855 387.53568174 396.86362386 387.57228535 C406.22556189 387.59432506 415.58734885 387.60397052 424.94931152 387.59778502 C431.36522159 387.59461275 437.78100256 387.60592512 444.19687268 387.62867943 C447.89990925 387.64135953 451.60265828 387.64750249 455.30570602 387.63626289 C459.31935728 387.62423702 463.33227623 387.64298611 467.34588623 387.66474915 C468.51767512 387.65630661 469.68946401 387.64786407 470.89676166 387.6391657 C479.25301691 387.72322942 482.35364074 389.22031574 488.54589844 394.73950195 C491.4071203 398.3667929 491.25068156 402.08780849 491.02636719 406.5559082 C490.37063298 411.39104725 488.7852521 414.14836781 485.23339844 417.42700195 C481.12826517 420.2305076 478.46351958 421.42641395 473.4416914 421.43706417 C471.84474226 421.44766256 471.84474226 421.44766256 470.21553153 421.45847505 C468.462411 421.45485243 468.462411 421.45485243 466.6738739 421.45115662 C465.43147267 421.45639329 464.18907143 421.46162997 462.90902168 421.46702534 C459.45807165 421.47944956 456.00732523 421.48286841 452.5563668 421.48242843 C448.83489674 421.48407573 445.11346386 421.49714111 441.39201355 421.50862122 C433.25100757 421.53148298 425.11002763 421.53939399 416.9689939 421.54444766 C411.88191639 421.54770516 406.79484644 421.55422822 401.70777321 421.56144905 C387.61425743 421.58102128 373.52074868 421.59742025 359.42721844 421.60032558 C358.52504331 421.60051315 357.62286818 421.60070072 356.69335442 421.60089398 C354.86449452 421.60126022 353.03563463 421.60162392 351.20677473 421.60198509 C350.29895655 421.6021679 349.39113837 421.60235071 348.45581055 421.60253906 C347.54687909 421.60271961 346.63794763 421.60290016 345.7014728 421.60308618 C330.99398045 421.60662308 316.28663496 421.63361228 301.5791935 421.67103695 C286.46733076 421.70918156 271.35554073 421.72848354 256.2436288 421.7287851 C247.76385938 421.7293685 239.28426486 421.73778393 230.80454063 421.76678276 C223.57876116 421.79137979 216.35322029 421.79852417 209.1274102 421.78353523 C205.44544002 421.77639851 201.76394014 421.77708161 198.08202362 421.79994583 C177.17212241 421.92189679 159.70899139 421.25853977 143.54980469 406.20043945 C129.85188793 391.41258093 128.93029072 374.54102226 129.46972656 355.30297852 C129.80668425 350.06704861 131.00077046 345.39382833 132.69824219 340.4230957 C135.7708119 330.16885704 133.55557692 321.91665569 130.97167969 311.8918457 C130.57493807 310.30669328 130.17955181 308.72120108 129.78544617 307.13539124 C128.74659716 302.97065941 127.68960287 298.81074639 126.62860107 294.65161133 C125.56472135 290.46815163 124.51789106 286.28043683 123.46972656 282.09301758 C121.74250426 275.20155946 120.00335045 268.31322947 118.253335 261.42752552 C117.19962346 257.27742562 116.15894962 253.12432387 115.12769985 248.96858883 C113.20013149 241.20685388 111.15507528 233.48150252 109.06152344 225.76293945 C104.1291731 207.41042107 99.61168687 188.95672593 95.08349609 170.50115967 C93.97135719 165.97075078 92.85622315 161.44107937 91.74121094 156.91137695 C90.48249106 151.79783424 89.22393111 146.68425459 87.96820068 141.56997681 C83.30968886 122.31052766 83.30968886 122.31052766 78.17089844 103.17700195 C75.17958879 92.52971662 72.51522504 81.81484793 70.00683594 71.04418945 C69.54766776 69.09339886 69.08849157 67.14260998 68.62835693 65.19204712 C68.18160059 63.28518136 67.74472959 61.37600813 67.30810547 59.46679688 C64.71919225 47.77647326 64.71919225 47.77647326 58.48339844 37.80200195 C50.76004189 33.33961817 43.41326519 32.75544694 34.62792969 32.8059082 C32.31477707 32.78853845 30.00162606 32.77095396 27.68847656 32.75317383 C24.07427131 32.74307897 20.46016609 32.73951287 16.84594727 32.74121094 C13.33547541 32.73764266 9.82576583 32.71032201 6.31542969 32.6809082 C4.69807671 32.69318199 4.69807671 32.69318199 3.04804993 32.70570374 C-3.0598836 32.64510873 -6.70848359 32.30657132 -11.32910156 28.17700195 C-15.43887252 22.7343323 -17.26711344 18.04272777 -16.32910156 11.17700195 C-12.67266906 4.13498381 -7.90117501 0.07906999 0 0 Z " fill="#426F79" transform="translate(254.3291015625,267.822998046875)"/>
<path d="M0 0 C69.96 0 139.92 0 212 0 C212 36.3 212 72.6 212 110 C199.61389671 102.11793427 199.61389671 102.11793427 195.25390625 99.140625 C194.31482422 98.49996094 193.37574219 97.85929687 192.40820312 97.19921875 C191.46912109 96.55597656 190.53003906 95.91273438 189.5625 95.25 C188.59634766 94.59128906 187.63019531 93.93257813 186.63476562 93.25390625 C179.17908009 88.15944614 179.17908009 88.15944614 177.01147461 86.22949219 C175.04025292 84.76374792 175.04025292 84.76374792 172.52758789 85.13256836 C169.81055665 86.06501422 167.8859836 87.20023776 165.55859375 88.87890625 C164.73294922 89.46704102 163.90730469 90.05517578 163.05664062 90.66113281 C162.19232422 91.28858398 161.32800781 91.91603516 160.4375 92.5625 C158.64519186 93.84077052 156.85222504 95.118118 155.05859375 96.39453125 C154.19218262 97.01408691 153.32577148 97.63364258 152.43310547 98.27197266 C140.48591885 106.75704057 140.48591885 106.75704057 134 110 C134 74.03 134 38.06 134 1 C89.78 1 45.56 1 0 1 C0 0.67 0 0.34 0 0 Z " fill="#F3C294" transform="translate(398,332)"/>
<path d="M0 0 C7.3430097 5.29964242 12.58411637 11.9784209 14.625 20.89453125 C15.78388218 30.58809784 14.44454547 39.24442021 8.9296875 47.40234375 C4.31946568 53.05779804 -0.66023275 56.18586243 -7.375 58.89453125 C-8.365 59.32765625 -9.355 59.76078125 -10.375 60.20703125 C-19.47367476 62.29214422 -27.4465624 60.6544563 -35.5 56.14453125 C-44.08348811 49.42701882 -49.41114378 42.54619684 -50.8203125 31.359375 C-51.16507916 20.798023 -48.92889294 13.58079301 -42.125 5.51953125 C-31.2093116 -5.93564751 -13.6183403 -7.90085776 0 0 Z " fill="#F7C394" transform="translate(485.375,704.10546875)"/>
<path d="M0 0 C2.30078125 1.39453125 2.30078125 1.39453125 4.375 2.875 C5.02855469 3.33261719 5.68210937 3.79023437 6.35546875 4.26171875 C13.07607868 9.49204418 17.23976585 16.43072408 18.375 24.875 C19.39263017 34.25285338 16.97640885 42.5282855 11.5625 50.25 C5.47548971 57.66949016 -2.66852737 61.81710324 -12.16796875 63.26171875 C-20.70428813 63.65528514 -28.55910582 60.9635752 -35.0625 55.4375 C-36.27073222 54.27110067 -37.46122904 53.08576408 -38.625 51.875 C-39.3675 51.111875 -40.11 50.34875 -40.875 49.5625 C-46.41439347 41.05557432 -47.74913195 32.95742056 -46.625 22.875 C-44.53076844 13.87847862 -39.20615608 6.98719158 -31.5 2 C-22.38928556 -3.40594259 -9.76903682 -4.6813104 0 0 Z " fill="#F7C495" transform="translate(684.625,702.125)"/>
<path d="M0 0 C22.44 0 44.88 0 68 0 C68 12.54 68 25.08 68 38 C45.56 38 23.12 38 0 38 C0 25.46 0 12.92 0 0 Z " fill="#F4C596" transform="translate(647,544)"/>
<path d="M0 0 C0.33 0 0.66 0 1 0 C1 54.12 1 108.24 1 164 C0.67 164 0.34 164 0 164 C-0.99 159.05 -0.99 159.05 -2 154 C-1.34 154 -0.68 154 0 154 C0 103.18 0 52.36 0 0 Z " fill="#E0EAE9" transform="translate(397,333)"/>
<path d="M0 0 C0.66 0.99 1.32 1.98 2 3 C1.01 4.485 1.01 4.485 0 6 C-0.39013716 7.9896995 -0.73202649 9.99019869 -1 12 C-1.33 12 -1.66 12 -2 12 C-2.28571429 3.42857143 -2.28571429 3.42857143 0 0 Z " fill="#62898E" transform="translate(240,275)"/>
</svg>
